<svg width="1269" height="317" viewBox="0 0 1269 317" fill="none" xmlns="http://www.w3.org/2000/svg">
<g clip-path="url(#clip0_201_1245)">
<path d="M222.992 107.082C226.39 104.066 228.543 99.6825 228.543 94.7877C228.543 85.7006 221.174 78.3394 212.095 78.3394C205.283 78.3394 199.442 82.4782 196.945 88.3733C189.889 85.6854 182.199 84.1963 174.151 84.1963C166.102 84.1963 158.42 85.6854 151.357 88.3733C148.852 82.4782 143.01 78.3394 136.206 78.3394C127.119 78.3394 119.758 85.7083 119.758 94.7877C119.758 99.6825 121.911 104.073 125.31 107.082C117.001 117.261 112.03 130.082 112.03 144.033C112.03 177.083 139.841 203.878 174.151 203.878C208.46 203.878 236.271 177.083 236.271 144.033C236.271 130.082 231.3 117.261 222.992 107.082Z" fill="#FF9D41"/>
<path d="M155.984 89.1367L165.377 126.18V126.195L167.858 136C168.141 137.122 169.065 137.894 170.119 137.871C172.18 137.833 175.548 137.833 177.602 137.863C178.648 137.878 179.572 137.115 179.855 135.992L189.347 98.8194C189.347 98.8194 189.377 98.827 189.392 98.8347L191.851 89.1291L192.325 86.8764L192.34 86.823C186.59 85.1201 180.489 84.1885 174.158 84.1885C167.828 84.1885 161.329 85.1888 155.419 86.991L155.495 87.2811L155.992 89.1367H155.984Z" fill="#F76635"/>
<path d="M276.276 157.725C267.586 144.056 252.749 134.892 235.789 134.343C235.507 134.327 235.232 134.297 234.949 134.282C234.85 134.282 234.759 134.289 234.659 134.312C234.499 134.312 234.339 134.297 234.171 134.297C218.891 134.297 205.222 141.299 196.005 152.333V152.318C196.005 152.318 195.936 152.41 195.814 152.563C195.638 152.776 195.455 152.99 195.279 153.212C192.996 155.892 185.414 163.727 174.914 163.727H172.799C160.718 163.727 152.005 152.715 152.005 152.715V152.761C142.842 141.559 129.135 134.411 113.794 134.312C113.534 134.213 113.244 134.198 112.969 134.304C112.87 134.304 112.778 134.32 112.679 134.327C99.8577 134.534 88.4951 139.802 80.0342 148.256C69.817 157.786 63.4561 171.378 63.4561 186.444C63.4561 215.24 86.8839 238.668 115.68 238.668C127.913 238.668 139.787 234.354 149.165 226.504L190.331 226.588L199.166 226.534C208.536 234.361 220.402 238.668 232.62 238.668C261.416 238.668 284.844 215.24 284.844 186.444C284.844 175.838 281.698 165.964 276.284 157.725H276.276Z" fill="white"/>
<path d="M181.84 157.763L176.334 162.635C174.379 164.369 171.432 164.369 169.477 162.635L163.971 157.763C160.405 154.609 162.642 148.714 167.4 148.714H178.411C183.168 148.714 185.406 154.602 181.84 157.763Z" fill="black"/>
<path d="M195.813 149.982C199.693 149.982 202.839 145.722 202.839 140.467C202.839 135.212 199.693 130.952 195.813 130.952C191.933 130.952 188.788 135.212 188.788 140.467C188.788 145.722 191.933 149.982 195.813 149.982Z" fill="black"/>
<path d="M149.989 149.982C153.869 149.982 157.014 145.722 157.014 140.467C157.014 135.212 153.869 130.952 149.989 130.952C146.109 130.952 142.964 135.212 142.964 140.467C142.964 145.722 146.109 149.982 149.989 149.982Z" fill="black"/>
<path d="M195.944 182.382C195.944 178.068 197.349 173.929 199.525 171.844C201.961 169.508 202.038 165.644 199.708 163.208C197.372 160.772 193.508 160.695 191.072 163.024C187.827 166.14 185.505 170.676 184.421 175.785L183.673 175.975C176.441 177.831 168.767 177.923 161.489 176.258C160.451 170.951 158.091 166.239 154.747 163.024C152.311 160.688 148.447 160.772 146.11 163.208C143.773 165.644 143.857 169.508 146.293 171.844C148.47 173.929 149.875 178.068 149.875 182.382C149.875 187.483 148.096 191.103 146.423 192.79C144.056 195.188 144.079 199.06 146.484 201.427C147.676 202.603 149.226 203.191 150.776 203.191C152.326 203.191 153.93 202.588 155.121 201.373C158.275 198.174 160.466 193.745 161.467 188.72C164.941 189.346 168.469 189.667 172.004 189.667C176.128 189.667 180.259 189.232 184.299 188.377C185.268 193.539 187.491 198.105 190.713 201.373C191.912 202.588 193.485 203.191 195.058 203.191C196.631 203.191 198.158 202.603 199.35 201.427C201.747 199.06 201.778 195.188 199.411 192.79C197.746 191.103 195.959 187.475 195.959 182.382H195.944Z" fill="black"/>
</g>
<path d="M378.869 231V86.3248H441.316C473.459 86.3248 495.004 106.67 495.004 137.47C495.004 168.623 472.893 188.05 439.904 188.05H418.146V231H378.869ZM418.146 157.532H431.992C445.767 157.532 454.032 149.832 454.032 137.47C454.032 125.037 445.767 117.69 431.992 117.69H418.146V157.532ZM509.415 231V86.3248H548.693V199.352H607.184V231H509.415ZM660.643 231H618.257L666.012 86.3248H719.7L767.454 231H725.068L716.733 203.308H668.979L660.643 231ZM677.879 173.921H707.832L693.421 126.167H692.29L677.879 173.921ZM781.388 231V86.3248H820.665V144.817H822.643L866.159 86.3248H911.935L863.05 150.75L913.065 231H866.159L833.663 176.747L820.665 193.701V231H781.388ZM961.172 231H918.787L966.541 86.3248H1020.23L1067.98 231H1025.6L1017.26 203.308H969.508L961.172 231ZM978.409 173.921H1008.36L993.95 126.167H992.82L978.409 173.921ZM1081.92 231V86.3248H1144.37C1176.51 86.3248 1198.05 104.692 1198.05 135.492C1198.05 155.554 1188.87 169.612 1173.47 177.029L1202.86 231H1160.19L1134.76 183.246H1121.19V231H1081.92ZM1121.19 152.728H1135.04C1148.82 152.728 1157.08 147.854 1157.08 135.492C1157.08 123.059 1148.82 117.69 1135.04 117.69H1121.19V152.728Z" fill="white"/>
<defs>
<clipPath id="clip0_201_1245">
<rect width="221.388" height="160.337" fill="white" transform="translate(63.4561 78.3315)"/>
</clipPath>
</defs>
</svg>
