<?xml version="1.0" encoding="UTF-8" standalone="no"?>
<svg
   width="1269"
   height="317"
   viewBox="0 0 1269 317"
   fill="none"
   version="1.1"
   id="svg2"
   sodipodi:docname="logo-light.svg"
   inkscape:version="1.4 (e7c3feb1, 2024-10-09)"
   xmlns:inkscape="http://www.inkscape.org/namespaces/inkscape"
   xmlns:sodipodi="http://sodipodi.sourceforge.net/DTD/sodipodi-0.dtd"
   xmlns="http://www.w3.org/2000/svg"
   xmlns:svg="http://www.w3.org/2000/svg">
  <defs
     id="defs2" />
  <sodipodi:namedview
     id="namedview2"
     pagecolor="#ffffff"
     bordercolor="#666666"
     borderopacity="1.0"
     inkscape:showpageshadow="2"
     inkscape:pageopacity="0.0"
     inkscape:pagecheckerboard="0"
     inkscape:deskcolor="#d1d1d1"
     inkscape:zoom="0.21922562"
     inkscape:cx="472.11636"
     inkscape:cy="444.7473"
     inkscape:window-width="1640"
     inkscape:window-height="814"
     inkscape:window-x="0"
     inkscape:window-y="44"
     inkscape:window-maximized="0"
     inkscape:current-layer="svg2" />
  <rect
     x="25.2271"
     y="15.0121"
     width="286.976"
     height="286.976"
     rx="143.488"
     fill="black"
     id="rect1" />
  <path
     d="M233.627 134.001C230.783 124.925 226.122 116.668 220.078 109.646C224.369 106.458 227.148 101.325 227.148 95.545C227.148 85.8665 219.358 78.026 209.758 78.026C201.889 78.026 195.246 83.2889 193.101 90.5047C185.425 87.5035 177.086 85.8593 168.362 85.8593C160.501 85.8593 152.946 87.2019 145.911 89.6574C143.509 82.8796 137.08 78.026 129.525 78.026C119.918 78.026 112.135 85.8736 112.135 95.545C112.135 100.636 114.287 105.216 117.73 108.419C111.158 115.692 106.112 124.387 103.097 133.993V134.008C77.3247 136.995 57.3112 159.044 57.3112 185.803C57.3112 214.602 80.4892 237.951 109.077 237.951C121.863 237.951 133.559 233.27 142.59 225.53L184.719 225.616L194.106 225.559C203.136 233.284 214.818 237.951 227.59 237.951C256.178 237.951 279.356 214.602 279.356 185.803C279.356 159.058 259.371 137.016 233.627 134.001ZM168.348 97.0312C173.166 97.0312 177.841 97.663 182.31 98.9123L173.729 132.766C173.472 133.785 172.646 134.482 171.691 134.467C169.83 134.438 166.787 134.446 164.927 134.474C163.972 134.489 163.145 133.792 162.881 132.773L154.357 98.9339C158.847 97.6702 163.523 97.0312 168.341 97.0312H168.348ZM177.421 158.563L171.819 163.56C169.83 165.334 166.83 165.334 164.841 163.56L159.239 158.563C155.611 155.325 157.885 149.294 162.731 149.294H173.936C178.782 149.294 181.049 155.332 177.428 158.563H177.421ZM145.02 131.078C148.969 131.078 152.169 135.444 152.169 140.836C152.169 146.228 148.969 150.593 145.02 150.593C141.072 150.593 137.871 146.228 137.871 140.836C137.871 135.444 141.072 131.078 145.02 131.078ZM195.289 194.462C197.698 196.925 197.677 200.888 195.232 203.315C194.02 204.521 192.445 205.117 190.863 205.117C189.281 205.117 187.656 204.493 186.437 203.251C183.151 199.898 180.899 195.224 179.908 189.925C175.796 190.801 171.598 191.246 167.4 191.246C163.808 191.246 160.216 190.923 156.68 190.277C155.661 195.425 153.43 199.969 150.223 203.251C149.004 204.493 147.401 205.117 145.797 205.117C144.193 205.117 142.64 204.514 141.428 203.315C138.983 200.888 138.955 196.918 141.371 194.462C143.067 192.732 144.878 189.02 144.878 183.793C144.878 179.37 143.445 175.127 141.235 172.995C138.755 170.604 138.677 166.64 141.05 164.142C143.424 161.643 147.365 161.564 149.838 163.955C153.245 167.243 155.647 172.083 156.702 177.518C164.107 179.227 171.911 179.133 179.274 177.231L180.037 177.037C181.141 171.795 183.493 167.15 186.8 163.955C189.281 161.564 193.215 161.643 195.588 164.142C197.962 166.64 197.883 170.604 195.403 172.995C193.187 175.134 191.761 179.37 191.761 183.793C191.761 189.02 193.571 192.732 195.275 194.462H195.289ZM191.647 150.586C187.698 150.586 184.498 146.221 184.498 140.829C184.498 135.436 187.698 131.071 191.647 131.071C195.596 131.071 198.796 135.436 198.796 140.829C198.796 146.221 195.596 150.586 191.647 150.586Z"
     fill="white"
     id="path1" />
  <path
     d="M 357.379,233 V 83.9532 h 64.335 c 33.114,0 55.31,20.9598 55.31,52.6908 0,32.094 -22.779,52.108 -56.765,52.108 H 397.843 V 233 Z m 40.464,-75.688 h 14.265 c 14.191,0 22.706,-7.932 22.706,-20.668 0,-12.809 -8.515,-20.378 -22.706,-20.378 H 397.843 Z M 491.871,233 V 83.9532 h 40.464 V 200.396 h 60.259 V 233 Z m 155.797,0 H 604.002 L 653.199,83.9532 h 55.31 L 757.706,233 H 714.04 l -8.588,-28.528 h -49.197 z m 17.757,-58.804 h 30.858 l -14.847,-49.197 h -1.164 z M 772.061,233 V 83.9532 h 40.464 v 60.2588 h 2.038 l 44.83,-60.2588 h 47.16 L 856.191,150.326 907.717,233 h -48.324 l -33.477,-55.893 -13.391,17.467 V 233 Z m 185.217,0 H 913.612 L 962.809,83.9532 h 55.311 L 1067.32,233 h -43.67 l -8.59,-28.528 h -49.194 z m 17.762,-58.804 h 30.85 l -14.84,-49.197 h -1.17 z M 1081.67,233 V 83.9532 h 64.34 c 33.11,0 55.31,18.9218 55.31,50.6528 0,20.668 -9.46,35.151 -25.33,42.793 L 1206.27,233 h -43.96 l -26.2,-49.197 h -13.97 V 233 Z m 40.47,-80.637 h 14.26 c 14.19,0 22.71,-5.021 22.71,-17.757 0,-12.809 -8.52,-18.34 -22.71,-18.34 h -14.26 z"
     fill="#000000"
     id="path2" />
</svg>
