<svg width="1269" height="317" viewBox="0 0 1269 317" fill="none" xmlns="http://www.w3.org/2000/svg">
<g clip-path="url(#clip0_201_1000)">
<path d="M120.363 150.067L110.376 138.549L129.834 111.666L126.756 92.9856L135.974 82.2295L152.354 81.9756L160.294 90.9313L189.985 87.3536L205.342 89.908L217.629 80.4368L236.833 83.5143L244.766 93.2395L234.017 110.389L242.465 122.676L251.675 138.034L248.605 149.813L215.583 180.781H156.193L120.363 150.067Z" fill="#FF9D41"/>
<path d="M241.796 135.625C226.585 135.625 212.975 142.419 203.796 153.129V153.114C203.796 153.114 203.727 153.198 203.604 153.352C203.427 153.56 203.25 153.768 203.073 153.983C200.795 156.584 193.248 164.193 182.799 164.193H180.691C168.665 164.193 159.987 153.506 159.987 153.506V153.552C150.8 142.604 137.028 135.633 121.625 135.633C93.9958 135.633 71.5988 158.03 71.5988 185.659C71.5988 213.288 93.9958 235.685 121.625 235.685C133.081 235.685 143.629 231.83 152.062 225.352L154.616 226.575L167.642 229.592L179.714 230.23L189.878 229.438L201.634 226.737L209.051 223.459C217.83 231.069 229.271 235.685 241.796 235.685C269.425 235.685 291.822 213.288 291.822 185.659C291.822 158.03 269.425 135.633 241.796 135.633V135.625Z" fill="white"/>
<path d="M173.106 124.2V124.215L175.606 133.871C175.891 134.979 176.822 135.733 177.883 135.718C179.961 135.679 183.354 135.679 185.423 135.71C186.478 135.725 187.409 134.971 187.693 133.871L197.257 97.2633C197.257 97.2633 197.288 97.271 197.303 97.2787L199.78 87.7151C187.124 83.9374 175.268 84.3683 163.65 87.7305L173.113 124.215L173.106 124.2Z" fill="#F76635"/>
<path d="M251.23 129.302C248.814 122.839 245.528 116.799 241.412 111.252C244.567 107.182 246.344 102.119 246.344 96.8793C246.344 83.9535 235.826 73.4282 222.893 73.4282C214.807 73.4282 207.367 77.683 203.119 84.2921C196.21 82.207 189.04 81.1606 181.73 81.1606C175.198 81.1606 168.751 82.007 162.503 83.6842C158.202 77.3829 150.985 73.4359 143.122 73.4359C130.196 73.4359 119.671 83.9535 119.671 96.887C119.671 101.396 120.987 105.789 123.38 109.536C118.686 115.514 114.909 122.231 112.239 129.309C85.1561 134.295 65.1826 157.992 65.1826 185.952C65.1826 217.72 91.0265 243.572 122.802 243.572C135.682 243.572 148.2 239.233 158.31 231.315L198.049 231.4L205.166 231.354C215.268 239.248 227.771 243.572 240.627 243.572C272.396 243.572 298.247 217.728 298.247 185.952C298.247 158.015 278.297 134.318 251.23 129.302ZM240.627 231.262C229.902 231.262 219.5 227.438 211.321 220.49C210.206 219.544 208.798 219.028 207.336 219.028H207.297L198.018 219.09L156.133 219.005H156.117C154.655 219.005 153.24 219.528 152.132 220.475C143.953 227.43 133.536 231.269 122.802 231.269C97.8203 231.269 77.4929 210.942 77.4929 185.96C77.4929 162.932 94.7196 143.582 117.555 140.958C119.879 140.689 121.848 139.119 122.649 136.919C122.679 136.842 122.702 136.765 122.726 136.688C125.395 128.248 129.966 120.315 135.951 113.737C138.229 111.236 138.06 107.366 135.574 105.073C133.266 102.934 131.989 100.034 131.989 96.8947C131.989 90.755 136.982 85.7539 143.13 85.7539C147.823 85.7539 152.039 88.7238 153.624 93.1478C154.763 96.3254 158.248 98.0027 161.441 96.8947C167.958 94.6327 174.79 93.4863 181.746 93.4863C189.455 93.4863 196.987 94.8866 204.12 97.6564C205.72 98.2796 207.505 98.2027 209.052 97.4487C210.59 96.6947 211.752 95.3329 212.244 93.6864C213.645 89.0161 218.03 85.7539 222.908 85.7539C229.048 85.7539 234.049 90.7473 234.049 96.8947C234.049 100.465 232.395 103.735 229.517 105.858C228.14 106.874 227.248 108.428 227.055 110.136C226.863 111.844 227.402 113.552 228.525 114.845C234.103 121.277 238.219 128.632 240.774 136.703C241.505 139.011 243.528 140.681 245.936 140.966C268.749 143.612 285.952 162.963 285.952 185.975C285.952 210.957 265.625 231.285 240.643 231.285L240.627 231.262Z" fill="black"/>
<path d="M178.261 162.947C180.231 164.694 183.2 164.694 185.17 162.947L190.717 158.038C194.311 154.861 192.056 148.929 187.263 148.929H176.168C171.375 148.929 169.121 154.861 172.714 158.038L178.261 162.947Z" fill="black"/>
<path d="M204.797 131.018C200.888 131.018 197.718 135.311 197.718 140.604C197.718 145.898 200.888 150.191 204.797 150.191C208.705 150.191 211.875 145.898 211.875 140.604C211.875 135.311 208.705 131.018 204.797 131.018Z" fill="black"/>
<path d="M158.632 150.199C162.54 150.199 165.71 145.905 165.71 140.612C165.71 135.319 162.54 131.025 158.632 131.025C154.723 131.025 151.553 135.319 151.553 140.612C151.553 145.905 154.723 150.199 158.632 150.199Z" fill="black"/>
<path d="M208.721 163.516C206.366 161.062 202.473 160.985 200.019 163.332C196.741 166.471 194.41 171.041 193.317 176.188L192.563 176.381C185.277 178.25 177.545 178.343 170.205 176.665C169.158 171.318 166.781 166.571 163.411 163.332C160.957 160.977 157.064 161.062 154.709 163.516C152.355 165.971 152.439 169.864 154.894 172.218C157.087 174.319 158.502 178.489 158.502 182.836C158.502 187.968 156.71 191.622 155.025 193.323C152.64 195.739 152.663 199.639 155.086 202.025C156.286 203.209 157.848 203.802 159.41 203.802C160.972 203.802 162.588 203.194 163.788 201.971C166.966 198.747 169.174 194.284 170.182 189.222C173.682 189.853 177.237 190.176 180.792 190.176C184.946 190.176 189.109 189.737 193.179 188.876C194.156 194.084 196.395 198.678 199.642 201.971C200.842 203.194 202.435 203.802 204.02 203.802C205.605 203.802 207.143 203.209 208.344 202.025C210.759 199.639 210.79 195.739 208.397 193.323C206.72 191.622 204.92 187.968 204.92 182.836C204.92 178.489 206.335 174.319 208.528 172.218C210.983 169.864 211.06 165.971 208.713 163.516H208.721Z" fill="black"/>
</g>
<path d="M377.142 231V86.3248H439.59C471.732 86.3248 493.278 106.67 493.278 137.47C493.278 168.623 471.167 188.05 438.177 188.05H416.419V231H377.142ZM416.419 157.532H430.265C444.04 157.532 452.305 149.832 452.305 137.47C452.305 125.037 444.04 117.69 430.265 117.69H416.419V157.532ZM507.689 231V86.3248H546.966V199.352H605.458V231H507.689ZM658.916 231H616.531L664.285 86.3248H717.973L765.727 231H723.342L715.006 203.308H667.252L658.916 231ZM676.153 173.921H706.105L691.694 126.167H690.564L676.153 173.921ZM779.661 231V86.3248H818.938V144.817H820.916L864.432 86.3248H910.208L861.324 150.75L911.338 231H864.432L831.937 176.747L818.938 193.701V231H779.661ZM959.446 231H917.06L964.814 86.3248H1018.5L1066.26 231H1023.87L1015.54 203.308H967.781L959.446 231ZM976.682 173.921H1006.63L992.224 126.167H991.093L976.682 173.921ZM1080.19 231V86.3248H1142.64C1174.78 86.3248 1196.33 104.692 1196.33 135.492C1196.33 155.554 1187.14 169.612 1171.74 177.029L1201.13 231H1158.46L1133.03 183.246H1119.47V231H1080.19ZM1119.47 152.728H1133.31C1147.09 152.728 1155.35 147.854 1155.35 135.492C1155.35 123.059 1147.09 117.69 1133.31 117.69H1119.47V152.728Z" fill="black"/>
<defs>
<clipPath id="clip0_201_1000">
<rect width="233.065" height="170.144" fill="white" transform="translate(65.1826 73.4282)"/>
</clipPath>
</defs>
</svg>
