<svg width="1269" height="317" viewBox="0 0 1269 317" fill="none" xmlns="http://www.w3.org/2000/svg">
<g clip-path="url(#clip0_201_1268)">
<path d="M234.018 134.512C231.174 125.437 226.513 117.18 220.469 110.158C224.76 106.97 227.539 101.836 227.539 96.0564C227.539 86.3779 219.749 78.5375 210.149 78.5375C202.28 78.5375 195.637 83.8003 193.492 91.0161C185.816 88.0149 177.477 86.3707 168.753 86.3707C160.892 86.3707 153.337 87.7134 146.302 90.1689C143.9 83.3911 137.471 78.5375 129.916 78.5375C120.309 78.5375 112.526 86.3851 112.526 96.0564C112.526 101.147 114.678 105.728 118.121 108.93C111.549 116.203 106.503 124.898 103.488 134.505V134.519C77.7157 137.506 57.7021 159.555 57.7021 186.315C57.7021 215.114 80.8802 238.463 109.468 238.463C122.254 238.463 133.95 233.781 142.981 226.041L185.11 226.128L194.497 226.07C203.527 233.796 215.209 238.463 227.981 238.463C256.569 238.463 279.747 215.114 279.747 186.315C279.747 159.57 259.762 137.528 234.018 134.512ZM168.739 97.5427C173.557 97.5427 178.232 98.1745 182.701 99.4238L174.12 133.277C173.863 134.297 173.037 134.993 172.082 134.979C170.221 134.95 167.178 134.957 165.318 134.986C164.363 135 163.536 134.304 163.272 133.284L154.748 99.4453C159.238 98.1817 163.914 97.5427 168.732 97.5427H168.739ZM177.812 159.074L172.21 164.072C170.221 165.845 167.221 165.845 165.232 164.072L159.63 159.074C156.002 155.836 158.276 149.805 163.122 149.805H174.327C179.173 149.805 181.44 155.843 177.819 159.074H177.812ZM145.411 131.59C149.36 131.59 152.56 135.955 152.56 141.347C152.56 146.739 149.36 151.105 145.411 151.105C141.463 151.105 138.262 146.739 138.262 141.347C138.262 135.955 141.463 131.59 145.411 131.59ZM195.68 194.974C198.089 197.437 198.068 201.4 195.623 203.827C194.411 205.033 192.836 205.629 191.254 205.629C189.672 205.629 188.047 205.004 186.828 203.762C183.542 200.409 181.29 195.735 180.299 190.436C176.187 191.312 171.989 191.757 167.791 191.757C164.199 191.757 160.607 191.434 157.071 190.788C156.052 195.936 153.821 200.481 150.614 203.762C149.395 205.004 147.792 205.629 146.188 205.629C144.584 205.629 143.031 205.026 141.819 203.827C139.374 201.4 139.346 197.429 141.762 194.974C143.458 193.244 145.268 189.532 145.268 184.305C145.268 179.882 143.836 175.638 141.626 173.506C139.146 171.115 139.068 167.152 141.441 164.653C143.815 162.155 147.756 162.076 150.229 164.467C153.636 167.755 156.038 172.594 157.093 178.029C164.498 179.738 172.302 179.645 179.665 177.742L180.428 177.548C181.532 172.307 183.884 167.662 187.191 164.467C189.672 162.076 193.606 162.155 195.979 164.653C198.353 167.152 198.274 171.115 195.794 173.506C193.578 175.646 192.152 179.882 192.152 184.305C192.152 189.532 193.962 193.244 195.666 194.974H195.68ZM192.038 151.098C188.089 151.098 184.889 146.732 184.889 141.34C184.889 135.948 188.089 131.583 192.038 131.583C195.987 131.583 199.187 135.948 199.187 141.34C199.187 146.732 195.987 151.098 192.038 151.098Z" fill="white"/>
</g>
<path d="M358.913 233V83.9532H423.247C456.361 83.9532 478.558 104.913 478.558 136.644C478.558 168.738 455.779 188.752 421.792 188.752H399.377V233H358.913ZM399.377 157.312H413.641C427.832 157.312 436.347 149.38 436.347 136.644C436.347 123.835 427.832 116.266 413.641 116.266H399.377V157.312ZM493.404 233V83.9532H533.868V200.396H594.127V233H493.404ZM649.201 233H605.535L654.732 83.9532H710.042L759.239 233H715.573L706.986 204.472H657.789L649.201 233ZM666.958 174.196H697.816L682.969 124.999H681.805L666.958 174.196ZM773.595 233V83.9532H814.058V144.212H816.096L860.927 83.9532H908.086L857.724 150.326L909.25 233H860.927L827.449 177.107L814.058 194.574V233H773.595ZM958.811 233H915.145L964.342 83.9532H1019.65L1068.85 233H1025.18L1016.6 204.472H967.399L958.811 233ZM976.569 174.196H1007.43L992.58 124.999H991.415L976.569 174.196ZM1083.21 233V83.9532H1147.54C1180.65 83.9532 1202.85 102.875 1202.85 134.606C1202.85 155.274 1193.39 169.757 1177.52 177.399L1207.8 233H1163.84L1137.64 183.803H1123.67V233H1083.21ZM1123.67 152.363H1137.93C1152.12 152.363 1160.64 147.342 1160.64 134.606C1160.64 121.797 1152.12 116.266 1137.93 116.266H1123.67V152.363Z" fill="white"/>
<defs>
<clipPath id="clip0_201_1268">
<rect width="222.045" height="159.925" fill="white" transform="translate(57.6938 78.5375)"/>
</clipPath>
</defs>
</svg>
