<svg width="246" height="178" viewBox="0 0 246 178" fill="none" xmlns="http://www.w3.org/2000/svg">
<path d="M61.18 80.6387L51.1933 69.1208L70.6512 42.2382L67.5737 23.5574L76.791 12.8012L93.1714 12.5473L101.112 21.5031L130.802 17.9254L146.159 20.4798L158.447 11.0085L177.651 14.0861L185.583 23.8113L174.835 40.961L183.283 53.2482L192.492 68.6053L189.422 80.3848L156.4 111.353H97.0106L61.18 80.6387Z" fill="#FF9D41"/>
<path d="M182.614 66.1973C167.403 66.1973 153.792 72.991 144.613 83.701V83.6856C144.613 83.6856 144.544 83.7702 144.421 83.9241C144.244 84.1318 144.067 84.3396 143.89 84.555C141.613 87.1555 134.065 94.7649 123.617 94.7649H121.508C109.483 94.7649 100.804 84.078 100.804 84.078V84.1241C91.6175 73.1757 77.8453 66.205 62.4421 66.205C34.8132 66.205 12.4161 88.602 12.4161 116.231C12.4161 143.86 34.8132 166.257 62.4421 166.257C73.8984 166.257 84.4467 162.402 92.8793 155.924L95.4337 157.147L108.46 160.163L120.531 160.802L130.695 160.009L142.451 157.309L149.868 154.031C158.647 161.641 170.088 166.257 182.614 166.257C210.243 166.257 232.64 143.86 232.64 116.231C232.64 88.602 210.243 66.205 182.614 66.205V66.1973Z" fill="white"/>
<path d="M113.923 54.7715V54.7869L116.423 64.4428C116.708 65.5507 117.639 66.3048 118.701 66.2894C120.778 66.2509 124.171 66.2509 126.241 66.2817C127.295 66.2971 128.226 65.5431 128.511 64.4428L138.074 27.8351C138.074 27.8351 138.105 27.8428 138.12 27.8505L140.598 18.2869C127.941 14.5092 116.085 14.94 104.467 18.3023L113.931 54.7869L113.923 54.7715Z" fill="#F76635"/>
<path d="M192.047 59.8734C189.631 53.4105 186.346 47.3707 182.23 41.8234C185.384 37.7533 187.161 32.6907 187.161 27.4511C187.161 14.5253 176.644 4 163.71 4C155.624 4 148.184 8.25475 143.937 14.8638C137.028 12.7788 129.857 11.7324 122.548 11.7324C116.016 11.7324 109.568 12.5787 103.321 14.256C99.0197 7.95468 91.8028 4.00769 83.9396 4.00769C71.0138 4.00769 60.4884 14.5253 60.4884 27.4588C60.4884 31.9675 61.8041 36.3607 64.1969 40.1076C59.5036 46.0858 55.7259 52.8026 53.0561 59.8811C25.9735 64.8667 6 88.564 6 116.524C6 148.292 31.8439 174.144 63.6199 174.144C76.4995 174.144 89.0176 169.804 99.1274 161.887L138.867 161.972L145.983 161.926C156.086 169.82 168.588 174.144 181.445 174.144C213.213 174.144 239.065 148.3 239.065 116.524C239.065 88.5871 219.114 64.8898 192.047 59.8734ZM181.445 161.833C170.719 161.833 160.317 158.01 152.139 151.062C151.023 150.116 149.615 149.6 148.153 149.6H148.115L138.836 149.662L96.95 149.577H96.9346C95.4728 149.577 94.0571 150.1 92.9492 151.046C84.7705 158.002 74.3529 161.841 63.6199 161.841C38.6377 161.841 18.3103 141.514 18.3103 116.531C18.3103 93.5035 35.537 74.1533 58.3726 71.5297C60.6962 71.2604 62.6658 69.6908 63.466 67.4904C63.4968 67.4134 63.5199 67.3365 63.5429 67.2595C66.2127 58.8193 70.7829 50.8868 76.7688 44.3085C79.0462 41.808 78.877 37.938 76.3918 35.6452C74.0836 33.5062 72.8064 30.6056 72.8064 27.4665C72.8064 21.3267 77.7998 16.3257 83.9473 16.3257C88.6406 16.3257 92.8568 19.2955 94.4418 23.7196C95.5805 26.8972 99.0658 28.5744 102.259 27.4665C108.776 25.2045 115.608 24.0581 122.563 24.0581C130.272 24.0581 137.805 25.4584 144.937 28.2282C146.537 28.8514 148.322 28.7745 149.869 28.0205C151.408 27.2665 152.569 25.9046 153.062 24.2581C154.462 19.5879 158.848 16.3257 163.726 16.3257C169.865 16.3257 174.866 21.319 174.866 27.4665C174.866 31.0365 173.212 34.3064 170.335 36.4299C168.958 37.4455 168.065 38.9997 167.873 40.7078C167.68 42.4158 168.219 44.1239 169.342 45.4165C174.92 51.8486 179.037 59.204 181.591 67.2749C182.322 69.5831 184.345 71.2527 186.754 71.5374C209.566 74.1841 226.77 93.5343 226.77 116.547C226.77 141.529 206.442 161.856 181.46 161.856L181.445 161.833Z" fill="black"/>
<path d="M119.078 93.5188C121.048 95.2654 124.018 95.2654 125.987 93.5188L131.535 88.6101C135.128 85.4325 132.874 79.5005 128.08 79.5005H116.986C112.192 79.5005 109.938 85.4325 113.531 88.6101L119.078 93.5188Z" fill="black"/>
<path d="M145.614 61.5894C141.706 61.5894 138.536 65.8826 138.536 71.176C138.536 76.4694 141.706 80.7626 145.614 80.7626C149.523 80.7626 152.692 76.4694 152.692 71.176C152.692 65.8826 149.523 61.5894 145.614 61.5894Z" fill="black"/>
<path d="M99.4493 80.7705C103.358 80.7705 106.528 76.4772 106.528 71.1838C106.528 65.8904 103.358 61.5972 99.4493 61.5972C95.5408 61.5972 92.3709 65.8904 92.3709 71.1838C92.3709 76.4772 95.5408 80.7705 99.4493 80.7705Z" fill="black"/>
<path d="M149.538 94.0882C147.184 91.6338 143.29 91.5569 140.836 93.9035C137.558 97.0426 135.227 101.613 134.135 106.76L133.381 106.952C126.095 108.822 118.362 108.914 111.022 107.237C109.976 101.89 107.598 97.1427 104.228 93.9035C101.774 91.5492 97.8808 91.6338 95.5265 94.0882C93.1722 96.5425 93.2568 100.436 95.7112 102.79C97.9039 104.89 99.3196 109.061 99.3196 113.408C99.3196 118.539 97.5269 122.194 95.8419 123.894C93.4568 126.31 93.4799 130.211 95.9035 132.596C97.1038 133.781 98.6656 134.374 100.227 134.374C101.789 134.374 103.405 133.766 104.605 132.542C107.783 129.319 109.991 124.856 110.999 119.794C114.5 120.425 118.054 120.748 121.609 120.748C125.764 120.748 129.926 120.309 133.996 119.447C134.973 124.656 137.212 129.249 140.459 132.542C141.659 133.766 143.252 134.374 144.837 134.374C146.422 134.374 147.961 133.781 149.161 132.596C151.577 130.211 151.608 126.31 149.215 123.894C147.537 122.194 145.737 118.539 145.737 113.408C145.737 109.061 147.153 104.89 149.346 102.79C151.8 100.436 151.877 96.5425 149.53 94.0882H149.538Z" fill="black"/>
</svg>
